# xmcd CD database file
#
# Track frame offsets:
#	150
#	19233
#	37096
#	58948
#	75729
#	90474
#	109689
#	130076
#	144673
#	160881
#	181257
#	197511
#	222763
#	238774
#	257963
#
# Disc length: 3614 seconds
#
# Revision: 1
# Processed by: cddbd v1.5.1PL2 Copyright (c) Steve Scherf et al.
# Submitted via: CDex 1.40Beta6
#
DISCID=d20e1c0f
DTITLE=Blackbell Blues - Off The Cuff
DYEAR=2005
DGENRE=Blues
TTITLE0=Statesboro' Blues
TTITLE1=Your Time To Worry
TTITLE2=Cocaine Lil
TTITLE3=Bourgeois Blues
TTITLE4=Po'r Boy
TTITLE5=Easy Rider
TTITLE6=Midnight Special
TTITLE7=Gallows Pole
TTITLE8=Walking Blues
TTITLE9=Sweet Chariot
TTITLE10=Trouble In Mind
TTITLE11=Love In Vain
TTITLE12=How Long Blues
TTITLE13=Take This Hammer
TTITLE14=Stones In My Passway
EXTD=
EXTT0=
EXTT1=
EXTT2=
EXTT3=
EXTT4=
EXTT5=
EXTT6=
EXTT7=
EXTT8=
EXTT9=
EXTT10=
EXTT11=
EXTT12=
EXTT13=
EXTT14=
PLAYORDER=
